#N canvas 957 85 958 994 10;
#X obj 89 285 bng 15 250 50 0 empty empty empty 17 7 0 10 -262144 -1
-1;
#X msg 147 287 open sounds/techloop.wav;
#X msg 294 286 open sounds/guitar.wav;
#N canvas 135 168 297 400 rmix2f 0;
#X obj 192 209 -;
#X msg 192 182 1 \$1;
#X floatatom 192 157 5 0 0 0 - - -;
#X floatatom 192 234 5 0 0 0 - - -;
#X msg 108 103 start;
#X obj 108 138 readsf~;
#X msg 26 102 start;
#X obj 26 137 readsf~;
#X obj 27 266 *~;
#X obj 109 266 *~;
#X obj 192 105 random 100;
#X obj 192 131 / 100;
#X obj 26 32 inlet;
#X obj 67 104 inlet;
#X obj 153 104 inlet;
#X obj 110 322 outlet~;
#X obj 26 62 trigger bang bang;
#X connect 0 0 3 0;
#X connect 1 0 0 0;
#X connect 2 0 1 0;
#X connect 2 0 8 1;
#X connect 3 0 9 1;
#X connect 4 0 5 0;
#X connect 5 0 9 0;
#X connect 6 0 7 0;
#X connect 7 0 8 0;
#X connect 8 0 15 0;
#X connect 9 0 15 0;
#X connect 10 0 11 0;
#X connect 11 0 2 0;
#X connect 12 0 16 0;
#X connect 13 0 7 0;
#X connect 14 0 5 0;
#X connect 16 0 6 0;
#X connect 16 0 4 0;
#X connect 16 1 10 0;
#X restore 93 341 pd rmix2f;
#X obj 122 390 dac~;
#X obj 80 83 bng 15 250 50 0 empty empty empty 17 7 0 10 -262144 -1
-1;
#X msg 138 85 open sounds/techloop.wav;
#X obj 113 188 dac~;
#X msg 195 122 open sounds/guitar.wav;
#N canvas 185 516 381 376 rsel2f 0;
#X msg 190 -60 start;
#X obj 181 24 readsf~;
#X obj 60 -246 bng 15 250 50 0 empty empty empty 17 7 0 10 -262144
-1 -1;
#X obj 60 -188 random 2;
#X floatatom 114 -162 5 0 0 0 - - -;
#X obj 60 -131 bng 15 250 50 0 empty empty empty 17 7 0 10 -262144
-1 -1;
#X obj 106 -111 bng 15 250 50 0 empty empty empty 17 7 0 10 -262144
-1 -1;
#X obj 60 -160 sel 0 1;
#X msg 60 -81 start;
#X obj 60 -41 readsf~;
#X msg 159 -157 0;
#X obj 60 -217 trigger bang bang;
#X obj 256 -31 inlet;
#X obj 123 -69 inlet;
#X obj 60 -288 inlet;
#X obj 61 34 outlet~;
#X connect 0 0 1 0;
#X connect 1 0 15 0;
#X connect 2 0 11 0;
#X connect 3 0 4 0;
#X connect 3 0 7 0;
#X connect 5 0 8 0;
#X connect 6 0 0 0;
#X connect 7 0 5 0;
#X connect 7 1 6 0;
#X connect 8 0 9 0;
#X connect 9 0 15 0;
#X connect 11 0 3 0;
#X connect 11 1 10 0;
#X connect 12 0 1 0;
#X connect 13 0 9 0;
#X connect 14 0 2 0;
#X restore 84 139 pd rsel2f;
#X connect 0 0 3 0;
#X connect 1 0 3 1;
#X connect 2 0 3 2;
#X connect 3 0 4 0;
#X connect 3 0 4 1;
#X connect 5 0 9 0;
#X connect 6 0 9 1;
#X connect 8 0 9 2;
#X connect 9 0 7 0;
#X connect 9 0 7 1;
