#N canvas 957 85 958 994 10;
#X msg 385 490 open sounds/guitar.wav;
#X msg 326 504 start;
#X msg 331 534 stop;
#X obj 362 574 readsf~;
#X obj 174 88 bng 15 250 50 0 empty empty empty 17 7 0 10 -262144 -1
-1;
#X obj 177 193 random 2;
#X floatatom 241 130 5 0 0 0 - - -;
#X floatatom 300 238 5 0 0 0 - - -;
#X obj 159 246 bng 15 250 50 0 empty empty empty 17 7 0 10 -262144
-1 -1;
#X obj 183 243 bng 15 250 50 0 empty empty empty 17 7 0 10 -262144
-1 -1;
#X obj 161 217 sel 0 1;
#X floatatom 232 329 5 0 0 0 - - -;
#X floatatom 314 329 5 0 0 0 - - -;
#X obj 184 393 spigot;
#X obj 274 400 spigot;
#X msg 385 306 1;
#X msg 211 301 1;
#X msg 76 490 start;
#X msg 68 524 stop;
#X obj 100 549 readsf~;
#X msg 278 169 0;
#X obj 217 359 tgl 15 0 empty empty empty 17 7 0 10 -262144 -1 -1 0
1;
#X obj 320 368 tgl 15 0 empty empty empty 17 7 0 10 -262144 -1 -1 0
1;
#X obj 206 666 dac~;
#X obj 115 426 trigger bang bang;
#X obj 163 142 trigger bang bang;
#X obj 294 439 trigger bang bang;
#X obj 95 275 trigger bang bang;
#X obj 268 298 trigger bang bang;
#X obj 700 520 -;
#X msg 697 485 1 \$1;
#X floatatom 619 507 5 0 0 0 - - -;
#X obj 642 420 hsl 128 15 0 1 0 0 empty empty empty -2 -8 0 10 -262144
-1 -1 0 1;
#X floatatom 814 549 5 0 0 0 - - -;
#X msg 852 395 open sounds/guitar.wav;
#X msg 793 409 start;
#X msg 798 439 stop;
#X obj 829 479 readsf~;
#X msg 543 395 start;
#X msg 535 429 stop;
#X obj 567 454 readsf~;
#X obj 709 615 dac~;
#X obj 582 331 trigger bang bang;
#X obj 761 344 trigger bang bang;
#X obj 626 267 trigger bang bang bang;
#X obj 645 217 bng 15 250 50 0 empty empty empty 17 7 0 10 -262144
-1 -1;
#X obj 579 546 *~;
#X obj 783 580 *~;
#X msg 147 467 open sounds/techloop.wav;
#X msg 614 372 open sounds/techloop.wav;
#X obj 706 316 random 100;
#X obj 697 340 / 100;
#X obj 488 671 bng 15 250 50 0 empty empty empty 17 7 0 10 -262144
-1 -1;
#X msg 546 673 open sounds/techloop.wav;
#X msg 693 672 open sounds/guitar.wav;
#N canvas 137 163 463 382 rmix2f 0;
#X obj 223 230 -;
#X msg 189 199 1 \$1;
#X floatatom 127 199 5 0 0 0 - - -;
#X obj 131 167 hsl 128 15 0 1 0 0 empty empty empty -2 -8 0 10 -262144
-1 -1 0 1;
#X floatatom 222 266 5 0 0 0 - - -;
#X msg 281 154 start;
#X msg 286 184 stop;
#X obj 317 224 readsf~;
#X msg 23 111 start;
#X obj 25 148 readsf~;
#X obj 24 67 trigger bang bang bang;
#X obj 65 270 *~;
#X obj 230 297 *~;
#X obj 152 100 random 100;
#X obj 151 134 / 100;
#X obj 26 32 inlet;
#X obj 60 119 inlet;
#X obj 384 150 inlet;
#X obj 131 319 outlet~;
#X connect 0 0 4 0;
#X connect 1 0 0 0;
#X connect 2 0 1 0;
#X connect 2 0 11 1;
#X connect 3 0 2 0;
#X connect 4 0 12 1;
#X connect 5 0 7 0;
#X connect 6 0 7 0;
#X connect 7 0 12 0;
#X connect 8 0 9 0;
#X connect 9 0 11 0;
#X connect 10 0 8 0;
#X connect 10 0 5 0;
#X connect 10 2 13 0;
#X connect 11 0 18 0;
#X connect 12 0 18 0;
#X connect 13 0 14 0;
#X connect 14 0 2 0;
#X connect 15 0 10 0;
#X connect 16 0 9 0;
#X connect 17 0 7 0;
#X restore 492 727 pd rmix2f;
#X obj 521 776 dac~;
#X obj 209 752 bng 15 250 50 0 empty empty empty 17 7 0 10 -262144
-1 -1;
#X msg 267 754 open sounds/techloop.wav;
#X obj 242 857 dac~;
#X msg 324 791 open sounds/guitar.wav;
#N canvas 185 516 502 491 rsel2f 1;
#X msg 190 -652 start;
#X obj 181 -568 readsf~;
#X obj 60 -838 bng 15 250 50 0 empty empty empty 17 7 0 10 -262144
-1 -1;
#X obj 60 -780 random 2;
#X floatatom 114 -754 5 0 0 0 - - -;
#X obj 60 -723 bng 15 250 50 0 empty empty empty 17 7 0 10 -262144
-1 -1;
#X obj 106 -703 bng 15 250 50 0 empty empty empty 17 7 0 10 -262144
-1 -1;
#X obj 60 -752 sel 0 1;
#X msg 60 -673 start;
#X obj 60 -633 readsf~;
#X msg 159 -749 0;
#X obj 60 -809 trigger bang bang;
#X obj 256 -623 inlet;
#X obj 123 -661 inlet;
#X obj 60 -880 inlet;
#X obj 61 -558 outlet~;
#X msg 37 37;
#X connect 0 0 1 0;
#X connect 1 0 15 0;
#X connect 2 0 11 0;
#X connect 3 0 4 0;
#X connect 3 0 7 0;
#X connect 5 0 8 0;
#X connect 6 0 0 0;
#X connect 7 0 5 0;
#X connect 7 1 6 0;
#X connect 8 0 9 0;
#X connect 9 0 15 0;
#X connect 11 0 3 0;
#X connect 11 1 10 0;
#X connect 12 0 1 0;
#X connect 13 0 9 0;
#X connect 14 0 2 0;
#X restore 213 808 pd rsel2f;
#X connect 0 0 3 0;
#X connect 1 0 3 0;
#X connect 2 0 3 0;
#X connect 3 0 23 0;
#X connect 3 0 23 1;
#X connect 4 0 25 0;
#X connect 5 0 7 0;
#X connect 5 0 10 0;
#X connect 6 0 5 1;
#X connect 8 0 27 0;
#X connect 9 0 28 0;
#X connect 10 0 8 0;
#X connect 10 1 9 0;
#X connect 11 0 21 0;
#X connect 12 0 22 0;
#X connect 13 0 24 0;
#X connect 14 0 26 0;
#X connect 15 0 12 0;
#X connect 16 0 11 0;
#X connect 17 0 19 0;
#X connect 18 0 19 0;
#X connect 19 0 23 0;
#X connect 19 0 23 1;
#X connect 20 0 12 0;
#X connect 20 0 11 0;
#X connect 21 0 13 1;
#X connect 22 0 14 1;
#X connect 24 0 17 0;
#X connect 24 1 48 0;
#X connect 25 0 5 0;
#X connect 25 1 20 0;
#X connect 26 0 1 0;
#X connect 26 1 0 0;
#X connect 27 0 13 0;
#X connect 27 1 16 0;
#X connect 28 0 14 0;
#X connect 28 1 15 0;
#X connect 29 0 33 0;
#X connect 30 0 29 0;
#X connect 31 0 30 0;
#X connect 31 0 46 1;
#X connect 32 0 31 0;
#X connect 33 0 47 1;
#X connect 34 0 37 0;
#X connect 35 0 37 0;
#X connect 36 0 37 0;
#X connect 37 0 47 0;
#X connect 38 0 40 0;
#X connect 39 0 40 0;
#X connect 40 0 46 0;
#X connect 42 0 38 0;
#X connect 42 1 49 0;
#X connect 43 0 35 0;
#X connect 43 1 34 0;
#X connect 44 0 42 0;
#X connect 44 1 43 0;
#X connect 44 2 50 0;
#X connect 45 0 44 0;
#X connect 46 0 41 0;
#X connect 46 0 41 1;
#X connect 47 0 41 1;
#X connect 47 0 41 0;
#X connect 48 0 19 0;
#X connect 49 0 40 0;
#X connect 50 0 51 0;
#X connect 51 0 31 0;
#X connect 52 0 55 0;
#X connect 53 0 55 1;
#X connect 54 0 55 2;
#X connect 55 0 56 0;
#X connect 55 0 56 1;
#X connect 57 0 61 0;
#X connect 58 0 61 1;
#X connect 60 0 61 2;
#X connect 61 0 59 0;
#X connect 61 0 59 1;
