#N canvas 2 49 675 713 10;
#X obj -78 7 inlet;
#X obj 3 7 inlet;
#X obj 3 34 / 127;
#X obj 3 61 * 0.01;
#X obj 3 88 + 0.99;
#X obj -12 115 *;
#X obj -78 46 mtof;
#X obj -77 198 *~ 0.5;
#X obj -76 225 outlet~;
#X text 139 97 det;
#X text 100 97 midi;
#X obj -78 146 osc~;
#X obj -12 146 osc~;
#X text 63 7 second inlet is midi control value to determine detune
amount;
#X text 101 112 sine~;
#X connect 0 0 6 0;
#X connect 1 0 2 0;
#X connect 2 0 3 0;
#X connect 3 0 4 0;
#X connect 4 0 5 1;
#X connect 5 0 12 0;
#X connect 6 0 5 0;
#X connect 6 0 11 0;
#X connect 7 0 8 0;
#X connect 11 0 7 0;
#X connect 12 0 7 0;
#X coords 0 -1 1 1 60 30 1 100 100;
