#N canvas 685 49 675 337 10;
#X obj -80 145 phasor~;
#X obj -80 6 inlet;
#X obj 1 6 inlet;
#X obj 1 33 / 127;
#X obj 1 60 * 0.01;
#X obj 1 87 + 0.99;
#X obj -14 114 *;
#X obj -80 45 mtof;
#X obj -14 145 phasor~;
#X obj -79 237 *~ 0.5;
#X obj -78 264 outlet~;
#X text 139 96 det;
#X text 100 96 midi;
#X text 57 5 second inlet is midi control value to determine detune
amount;
#X obj -80 173 expr~ $v1 > 0.5;
#X obj -14 202 expr~ $v1 > 0.5;
#X text 100 112 sqaure~;
#X connect 0 0 14 0;
#X connect 1 0 7 0;
#X connect 2 0 3 0;
#X connect 3 0 4 0;
#X connect 4 0 5 0;
#X connect 5 0 6 1;
#X connect 6 0 8 0;
#X connect 7 0 0 0;
#X connect 7 0 6 0;
#X connect 8 0 15 0;
#X connect 9 0 10 0;
#X connect 14 0 9 0;
#X connect 15 0 9 0;
#X coords 0 -1 1 1 60 30 2 100 100;
